<svg width="17" height="21" viewBox="0 0 17 21" fill="none" xmlns="http://www.w3.org/2000/svg">
<path d="M8.41295 4.514C7.6416 4.514 6.88758 4.74273 6.24623 5.17127C5.60488 5.59981 5.10501 6.2089 4.80983 6.92154C4.51465 7.63417 4.43741 8.41833 4.58789 9.17485C4.73837 9.93138 5.10982 10.6263 5.65524 11.1717C6.20067 11.7171 6.89557 12.0886 7.6521 12.2391C8.40862 12.3895 9.19279 12.3123 9.90542 12.0171C10.6181 11.722 11.2271 11.2221 11.6557 10.5807C12.0842 9.93937 12.313 9.18534 12.313 8.414C12.313 7.90184 12.2121 7.39471 12.0161 6.92154C11.8201 6.44837 11.5328 6.01843 11.1707 5.65628C10.8085 5.29414 10.3786 5.00686 9.90542 4.81087C9.43225 4.61488 8.9251 4.514 8.41295 4.514ZM8.41295 10.67C7.96655 10.67 7.53019 10.5376 7.15902 10.2896C6.78786 10.0416 6.49858 9.68913 6.32776 9.27671C6.15693 8.8643 6.11224 8.4105 6.19932 7.97268C6.28641 7.53487 6.50137 7.13271 6.81701 6.81706C7.13266 6.50141 7.53482 6.28645 7.97264 6.19937C8.41045 6.11228 8.86426 6.15697 9.27667 6.3278C9.68908 6.49863 10.0416 6.78791 10.2896 7.15908C10.5376 7.53024 10.67 7.96661 10.67 8.413C10.6692 9.01135 10.4311 9.58496 10.008 10.0081C9.58493 10.4312 9.0113 10.6692 8.41295 10.67Z" fill="url(#paint0_linear_1926_325)"/>
<path d="M8.41495 0C6.18442 0.00238235 4.04592 0.889514 2.46869 2.46674C0.891465 4.04397 0.00433547 6.18247 0.00195312 8.413V8.646C0.00195312 10.992 1.34695 13.726 4.00195 16.772C5.19958 18.1433 6.50363 19.418 7.90195 20.584L8.41495 21L8.93095 20.583C10.3293 19.417 11.6334 18.1424 12.831 16.771C15.484 13.725 16.831 10.991 16.831 8.645V8.413C16.8286 6.18195 15.941 4.043 14.3632 2.46568C12.7853 0.88837 10.646 0.00158818 8.41495 0ZM15.186 8.646C15.186 12.611 10.077 17.41 8.41495 18.867C6.75195 17.41 1.64395 12.61 1.64395 8.646V8.413C1.64395 7.52375 1.8191 6.64322 2.1594 5.82166C2.4997 5.0001 2.99849 4.25362 3.62728 3.62483C4.25607 2.99603 5.00256 2.49725 5.82411 2.15695C6.64567 1.81665 7.52621 1.6415 8.41545 1.6415C9.3047 1.6415 10.1852 1.81665 11.0068 2.15695C11.8284 2.49725 12.5748 2.99603 13.2036 3.62483C13.8324 4.25362 14.3312 5.0001 14.6715 5.82166C15.0118 6.64322 15.187 7.52375 15.187 8.413L15.186 8.646Z" fill="url(#paint1_linear_1926_325)"/>
<defs>
<linearGradient id="paint0_linear_1926_325" x1="8.41645" y1="0" x2="8.41645" y2="21" gradientUnits="userSpaceOnUse">
<stop stop-color="#25C5F9"/>
<stop offset="1" stop-color="#F20BEF"/>
</linearGradient>
<linearGradient id="paint1_linear_1926_325" x1="8.41645" y1="0" x2="8.41645" y2="21" gradientUnits="userSpaceOnUse">
<stop stop-color="#25C5F9"/>
<stop offset="1" stop-color="#F20BEF"/>
</linearGradient>
</defs>
</svg>
