<svg width="17" height="13" viewBox="0 0 17 13" fill="none" xmlns="http://www.w3.org/2000/svg">
<path d="M1.993 12.8981C1.46499 12.8962 0.959135 12.6857 0.585774 12.3123C0.212413 11.939 0.00184482 11.4331 0 10.9051L0 2.40509C0.00210814 1.87725 0.212793 1.37165 0.586125 0.998505C0.959458 0.62536 1.46516 0.414929 1.993 0.413086L15.008 0.413086C15.5358 0.415194 16.0414 0.625879 16.4146 0.999211C16.7877 1.37254 16.9982 1.87825 17 2.40609V10.9061C16.9982 11.4341 16.7876 11.94 16.4142 12.3133C16.0409 12.6867 15.535 12.8972 15.007 12.8991L1.993 12.8981ZM1.329 10.9051C1.32926 11.0811 1.39931 11.2498 1.52377 11.3743C1.64824 11.4988 1.81698 11.5688 1.993 11.5691H15.008C15.184 11.5688 15.3528 11.4988 15.4772 11.3743C15.6017 11.2498 15.6717 11.0811 15.672 10.9051V2.81309L8.5 8.14709L1.328 2.81309L1.329 10.9051ZM8.5 6.49209L14.887 1.74209H2.114L8.5 6.49209Z" fill="url(#paint0_linear_1926_317)"/>
<defs>
<linearGradient id="paint0_linear_1926_317" x1="8.5" y1="0.413086" x2="8.5" y2="12.8991" gradientUnits="userSpaceOnUse">
<stop stop-color="#25C5F9"/>
<stop offset="1" stop-color="#F20BEF"/>
</linearGradient>
</defs>
</svg>
